<svg xmlns="http://www.w3.org/2000/svg" xmlns:xlink="http://www.w3.org/1999/xlink" viewBox="0 0 220 45"><defs><style>.a,.b{fill:none;}.a{clip-rule:evenodd;}.c{clip-path:url(#a);}.d{clip-path:url(#b);}.e{isolation:isolate;}.f{clip-path:url(#c);}.g{fill:#00bc32;}</style><clipPath id="a" transform="translate(5 5.75)"><path class="a" d="M141.8,10.319a26.506,26.506,0,0,1,3.041-.746c.009-1.458-.2-2.7-1.013-3.356C143.3,7.729,141.913,8.4,141.8,10.319Zm-28.258,1.367c1.049-.147,2.1.423,2.788-.124-.515-.82-.45-2.21-1.394-2.611h-.253C114.516,10.076,113.675,10.535,113.538,11.686Zm43.338,1.74c2.453-.535,3.763-2.191,4.688-4.226-.356-.6-.805-1.116-1.14-1.74,2.236-.961-.1-3.91-1.774-4.1A65.517,65.517,0,0,0,156.876,13.426ZM54.108,7.211c-.1-2.458,1.927-2.833,2.915-4.226C57.88,5.143,55.313,6.668,54.108,7.211ZM34.721,4.6c-.922,2.654-5.36,1.2-6.083-.622.722,4.6,3.472,7.2,3.294,12.68-5.084,2.916-12.343-.134-14.572-3.854.612-1.678,1.378-3.206,4.055-2.859.5,2.987,2.33,4.676,5.576,4.973.867-5.512-3.5-7.991-3.548-13.426C27.144-1.565,33.238,1.344,34.721,4.6ZM116.2-.744h.507A2.941,2.941,0,0,1,118.988.748c-2.66,2.54-1.059,7.749.253,10.566.589.1,2.009-.136,2.534.372-.134,1.345-1.23,2.768,0,3.729.516-3.879,2.226-8.85,4.562-11.56,1.671-1.938,4.675-3.4,7.1-1.367-3.478,3.466-8.06,5.849-7.983,12.8,4.825.207,6.6-5.535,11.024-3.356,1.262-1.442,1.92-3.518,2.914-5.718.794-1.755,1.719-4.722,3.929-4.848,3.192-.183,3.931,3.8,4.561,6.837,1.122.5,3.282.354,2.535,2.113-.374.882-.967-.115-1.52.746-.086,2.535,2.435,4.432,1.013,6.712-3.571.272-3.429-3.1-4.181-5.593-1.97.263-3.327,1.128-5.576,1.118-2.058.9-1.373,4.992-3.8,5.222a2,2,0,0,1-2.282-1.741c-.164-1.762,1.792-2.06,1.774-3.605-3.009,1.74-8.313,7.157-14.192,5.22-2.1-.691-3.022-2.387-3.928-4.474-1.355.577-3.634.246-5.195.621-1.077.536-1.441,4.357-2.535,4.724-1.281.429-2.544-.944-3.041-1.989.241-1.255,1.127-1.878,1.521-2.983-.623-.756-1.942-.756-1.521-1.989.276-.8,1.376-.591,2.661-.622C111.55,7.291,113.116,2.529,116.2-.744Zm83,14.3c5.487-.169,6.587-4.642,7.856-8.95.773.526,2.3.315,2.915.994-.112,6.645-4.428,9.165-7.984,12.431-.542,3.446-.421,7.541-1.267,10.69-1.5.063-1.629-1.219-2.788-1.492-.71-3.2.217-6.562.507-9.571-2.773-2.665-3.523-9.638-2.154-14.419C201.248,3.211,198.409,9.841,199.2,13.551ZM170.688.748a6.87,6.87,0,0,1-1.14,4.226c1.708,1.395,5.173-.757,6.842.621-.843,3.275-7.622.727-8.237,4.226,2.839,1.169,4.972-1.36,7.983-1.243a6.584,6.584,0,0,0,1.015,1.243c-1.708,2.51-5.712,2.767-9.377,3.357v3.853c8.247-.279,10.021-6.908,12.925-12.43,4.425-.654,3.326,4.113,3.928,7.21a38.005,38.005,0,0,0,5.068-8.2c5.67.421,3.816,8.1,4.055,13.55-2.964-.295-3.768-3.331-3.294-6.589-2.889,1.518-3.138,6.7-6.336,8.328a24.931,24.931,0,0,1-2.408-1.118c-.52-1.73-.268-3.644-.254-5.718-1.758,1.216-2.694,4.317-3.548,6.836A3.9,3.9,0,0,1,175,18.274c-3.312,3.334-12.569,2.2-10.9-4.35-4.007.54-6.012,4.764-10.9,3.232.5-5.806-.251-12.843,2.914-16.036,5.11-1.367,6.894,2.573,9.124,4.848,1.608-1.116,1.65-3.768,2.535-5.594C169.045.2,169.537.8,170.688.748ZM39.029,13.426c3.7.848,6.385-4.663,9.5-1.74,2.015-2.455.983-6.513,3.168-8.949a8.158,8.158,0,0,1,9.757-1.368.829.829,0,0,0,.38.87c-.207,5.391-4.417,6.854-7.856,9.075,2.285,1.229,5.212-.28,8.11,0C62.439,7.636,62.019,3.2,63.866,1a3.168,3.168,0,0,1,2.66,1.243c-.828,2.709-.742,6.315-1.393,9.2,2.972-1.849,4.652-6.043,5.829-10.068,1.409-.14,1.754.765,2.914.87,1,4.534.251,10.776,1.014,15.538C70.2,19.8,71.4,13.059,70.835,9.821c-1.357,2.9-7.085,10.645-9,3.73-2.649.377-5.585,1.543-8.617.746-1.024.972-.443,3.427-1.9,3.853-1.15.337-1.632-.573-2.914-.622-.271-2.035,1.2-3.68.254-5.22-2.157,1.345-5.209,3.888-9.378,3.729-1.947-.074-4.174-1.032-4.561-2.486-.419-1.573.615-4.347,1.394-6.091,1.381-3.095,3.8-7.339,7.6-7.831,2.466-.319,3.555.814,4.688,2.238C42.033,2.535,38.86,6.341,39.029,13.426ZM94.405,1.742c.483,5.729,1.5,12.684.253,18.273A5.12,5.12,0,0,1,91.489,18.9a37.43,37.43,0,0,0,0-10.069c-1.773.435-2.634,4.177-4.434,5.843-.753.7-2.558,1.722-3.8,1.367-1.338-.382-1.444-2.566-1.647-4.351-1.881.628-.694,6.054-2.281,7.459-1.779,1.574-3.412-.224-3.041-2.486.7-4.289,3.2-9.9,3.548-14.544,5.052-.357,4.394,4.887,4.815,9.074C87.841,9.1,89.734,4.661,91.87,1.12,92.742,1.3,93.6,1.5,94.405,1.742ZM3.8,33.564H1.774A2.353,2.353,0,0,1,0,31.7v-.87c1.974-3.346,7.651-3.472,12.8-3.729,3.951-.2,8.048-.357,11.658-.622,23.154-1.7,47.06-1.833,70.962-2.486,16.366-.447,32.591.622,48.406.622,7.944,0,15.845.512,23.569.87,5.782.268,11.4,1.214,17.36.994a41.83,41.83,0,0,1,5.449-.248c.35,5.477-7.028,4.647-12.925,4.35-3.977-.2-7.7-.527-11.278-.746-8.091-.492-15.7-.282-23.316-.621-23.454-1.045-48.21.125-71.214.125-7.814,0-15.578.465-23.19.745C32.849,30.65,17.531,31.5,3.8,33.564Z"/></clipPath><clipPath id="b" transform="translate(5 5.75)"><rect class="b" y="-0.75" width="210" height="35"/></clipPath><clipPath id="c" transform="translate(5 5.75)"><rect class="b" x="-5" y="-5.75" width="220" height="45"/></clipPath></defs><title>scrum_acadamy</title><g class="c"><g class="d"><g class="e"><g class="f"><g class="d"><rect class="g" y="0.006" width="219.971" height="44.308"/></g><g class="d"><g class="d"><rect class="g" width="220" height="45"/></g></g></g></g></g></g></svg>